<?xml version="1.0" encoding="utf-8"?>
<svg version="1.1" id="Layer_1" xmlns="http://www.w3.org/2000/svg" xmlns:xlink="http://www.w3.org/1999/xlink" x="0px" y="0px"
	 viewBox="0 0 500 500" enable-background="new 0 0 500 500" xml:space="preserve">
<path fill="#010101" d="M438.2,241.9c-5.8,0-11.1,3.3-13.7,8.5L411.7,276l-46.3-163c-2-7-8.5-11.5-15.7-11.1
	c-7.2,0.4-13.2,5.8-14.2,12.9l-33.9,216.5L265.2,60.2c-1-7.5-7.3-13.2-14.9-13.3c-7.5,0-14.2,5.3-15.3,12.9l-32,195.2l-11.8-101.8
	c-0.9-7.1-6.4-12.6-13.5-13.4c-7.1-0.8-13.8,3.4-16.2,10.2l-37.3,108l-17.1-55c-1.9-6.3-7.7-10.6-14.3-10.7
	c-6.6-0.3-12.5,3.9-14.8,10.1l-16.2,44.8H0v30.6h72.5c6.4,0,12.3-4,14.4-10.1l4.3-12l17.3,56c1.9,6.3,7.7,10.6,14.4,10.7
	c6.6-0.1,12.5-4,14.7-10.4l30.7-88.8L185,367.1c0.9,7.6,7.2,13.4,14.8,13.5c0.1,0,0.3,0,0.4,0c7.5,0,13.9-5.4,15-12.9L248.4,166
	L285,439.8c1,7.6,7.5,13.2,15,13.3h0.1c7.6,0,13.9-5.4,15.2-12.9l39.5-251.6l38.1,134c1.8,6.1,7,10.5,13.3,11.1
	c6.3,0.5,12.3-2.8,15.2-8.5l26.2-52.6H500V242h-61.8V241.9z"/>
</svg>
