<?xml version="1.0" encoding="UTF-8"?>
<svg xmlns="http://www.w3.org/2000/svg" height="512pt" viewBox="0 -26 512.00318 512" width="512pt">
   <path d="m485.0625 170.671875h-26.742188c.457032-5.171875 2.003907-10.203125 
   4.671876-14.675781l14.640624-24.550782c2.882813-4.820312 
   2.953126-10.859374.179688-15.753906-1.832031-3.226562-4.769531-5.523437-8.136719-6.792968-.171875-2.398438-.792969-4.777344-2.058593-6.917969l-1.167969-1.570313c-10.5625-11.28125-36.882813-37.53125-53.25-37.53125h-62.875v-8.980468c0-29.726563-24.175781-53.898438-53.898438-53.898438h-89.824219c-29.722656 
   0-53.894531 24.171875-53.894531 53.898438v8.980468h-53.898437c-16.367188 
   0-42.683594 26.25-53.242188 37.53125l-1.164062 1.570313c-1.265625 2.140625-1.878906 
   4.519531-2.058594 6.917969-3.367188 1.265624-6.316406 3.566406-8.140625 6.792968-2.773437 
   4.894532-2.710937 10.933594.171875 15.753906l14.648438 24.542969c2.667968 4.480469 
   4.214843 9.511719 4.671874 14.6875h-26.746093c-14.859375-.003906-26.949219 12.085938-26.949219 
   26.945313s12.089844 26.949218 26.949219 26.949218h26.949219v179.652344c0 2.289063.179687 
   4.535156.445312 6.753906-.1875.738282-.445312 1.445313-.445312 2.230469 0 2.019531.789062 
   3.789063 1.910156 5.289063 6.296875 23.804687 27.882812 41.425781 53.527344 
   41.425781h293.328124c30.570313 0 55.441407-24.988281 55.441407-55.699219v-179.652344h26.949219c14.855468 
   0 26.949218-12.089843 26.949218-26.949218s-12.085937-26.949219-26.941406-26.949219zm-71.863281-89.824219c5.015625.0625 
   20.769531 12.171875 35.410156 26.949219h-134.933594c.421875-2.949219.71875-5.929687.71875-8.984375 
   0-6.242188-.945312-12.269531-2.652343-17.964844zm-121.378907 37.410156c-.628906 1.304688-1.3125 
   2.570313-2.066406 3.800782-.601562.996094-1.214844 1.984375-1.894531 2.917968-.980469 1.359376-2.066406 
   2.625-3.183594 3.855469-.617187.679688-1.183593 1.425781-1.839843 2.066407-1.777344 1.742187-3.710938 
   3.332031-5.757813 4.75-.738281.511718-1.546875.914062-2.308594 1.382812-1.484375.898438-2.992187 
   1.753906-4.574219 2.480469-.933593.429687-1.894531.804687-2.855468 1.164062-1.625.621094-3.296875 
   1.132813-5 1.554688-.890625.226562-1.777344.476562-2.6875.648437-2.660156.511719-5.355469.84375-8.136719.84375-2.785156 
   0-5.480469-.332031-8.121094-.816406-.910156-.171875-1.796875-.421875-2.6875-.648438-1.707031-.429687-3.378906-.941406-5.003906-1.554687-.957031-.367187-1.921875-.734375-2.855469-1.164063-1.578125-.730468-3.089844-1.582031-4.570312-2.480468-.761719-.46875-1.574219-.871094-2.308594-1.382813-2.050781-1.429687-3.980469-3.019531-5.757812-4.753906-.65625-.644531-1.222657-1.382813-1.84375-2.0625-1.121094-1.242187-2.199219-2.507813-3.179688-3.855469-.671875-.933594-1.285156-1.929687-1.894531-2.917968-.746094-1.230469-1.4375-2.496094-2.066407-3.800782-.546874-1.121094-1.078124-2.261718-1.535156-3.441406-1.921875-5.011719-3.089844-10.371094-3.089844-16.03125 
   0-8.804688 2.640626-16.960938 7.03125-23.90625.46875-.742188.960938-1.46875 1.472657-2.1875 
   1.214843-1.691406 2.523437-3.289062 3.960937-4.796875.441406-.457031.875-.925781 1.332032-1.367187 
   1.570312-1.519532 3.269531-2.890626 5.046874-4.167969.730469-.527344 1.484376-1.015625 
   2.246094-1.5 1.652344-1.039063 3.367188-1.976563 5.148438-2.800781.574218-.261719 1.121094-.574219 
   1.707031-.816407 2.207031-.910156 4.515625-1.589843 6.878906-2.136719.730469-.171874 1.464844-.316406 
   2.199219-.449218 2.578125-.457032 5.195312-.800782 7.90625-.800782 2.714844 0 5.328125.34375 7.90625.800782.734375.132812 
   1.472656.277344 2.199219.449218 2.363281.546876 4.671875 1.230469 6.882812 2.136719.582031.242188 1.128907.546875 
   1.703125.816407 1.789063.828124 3.503906 1.761718 5.148438 2.800781.761718.476562 1.507812.972656 2.246094 1.5 
   1.777343 1.277343 3.476562 2.648437 5.046874 4.167969.460938.441406.890626.910156 1.332032 1.367187 1.425781 1.5 
   2.75 3.105469 3.960937 4.796875.511719.707031.996094 1.445312 1.472657 2.1875 4.355468 6.945312 6.996093 15.101562 
   6.996093 23.90625 0 5.648438-1.167969 11.011719-3.082031 16.003906-.445312 1.1875-.984375 2.320313-1.523438 
   3.441406zm-121.152343-64.359374c0-19.816407 16.117187-35.929688 35.933593-35.929688h89.824219c19.816407 0 
   35.929688 16.113281 35.929688 35.929688v8.984374h-29.300781c-.101563-.144531-.226563-.269531-.332032-.414062-1.242187-1.742188-2.570312-3.414062-3.980468-5.023438-.34375-.386718-.683594-.753906-1.035157-1.132812-1.335937-1.453125-2.738281-2.835938-4.210937-4.15625-.296875-.269531-.582032-.539062-.878906-.800781-5.425782-4.707031-11.652344-8.480469-18.460938-11.121094-.347656-.132813-.699219-.25-1.042969-.382813-1.847656-.683593-3.746093-1.277343-5.675781-1.78125-.511719-.132812-1.023438-.265624-1.535156-.394531-1.824219-.429687-3.671875-.761719-5.550782-1.035156-.558593-.078125-1.105468-.1875-1.664062-.25-2.363281-.269531-4.757812-.441406-7.195312-.441406-2.433594 
   0-4.832032.171875-7.195313.441406-.554687.0625-1.105469.179687-1.660156.25-1.878907.269531-3.726563.601563-5.550781 
   1.035156-.511719.125-1.023438.261719-1.539063.394531-1.929687.511719-3.816406 1.097657-5.675781 
   1.78125-.347656.125-.699219.25-1.039063.382813-6.8125 2.644531-13.035156 6.414063-18.460937 
   11.121094-.296875.261719-.582032.539062-.878906.800781-1.464844 1.320312-2.875 2.710938-4.214844 
   4.15625-.347656.378906-.691406.746094-1.03125 1.132812-1.410156 1.609376-2.742188 3.28125-3.980469 5.023438-.097656.144531-.222656.269531-.332031.414062h-29.265625zm-71.859375 26.949218h92.476562c-1.707031 5.695313-2.648437 11.722656-2.648437 17.964844 0 3.054688.292969 6.035156.71875 8.984375h-125.949219c14.472656-14.570313 30.472656-26.886719 35.402344-26.949219zm-71.859375 125.753906c-4.949219 0-8.984375-4.023437-8.984375-8.980468 0-4.960938 4.035156-8.984375 8.984375-8.984375h26.949219v17.964843zm413.199219 197.621094c0 20.804688-16.816407 37.734375-37.476563 37.734375h-293.335937c-14.171876 0-26.382813-8.058593-32.75-19.769531h76.117187c4.960937 0 8.984375-4.015625 8.984375-8.984375 0-4.964844-4.023438-8.980469-8.984375-8.980469h-80.84375v-17.96875h53.894531c4.960938 0 8.984375-4.011718 8.984375-8.980468s-4.023437-8.984376-8.984375-8.984376h-53.890625v-17.964843h35.929688c4.957031 0 8.980469-4.015625 8.980469-8.984375 0-4.964844-4.023438-8.980469-8.980469-8.980469h-35.929688v-161.6875h-.207031c-.488281-8.417969-2.875-16.628906-7.203125-23.886719l-12.550781-21.023437h142.851562c.070313.152343.167969.277343.242188.421875 2.460937 5.054687 5.550781 9.726562 9.21875 13.914062.285156.332032.582031.648438.878906.96875 1.714844 1.886719 3.53125 3.683594 5.46875 5.34375.128906.109375.246094.226563.371094.332032 2.101562 1.78125 4.328125 3.417968 6.644531 4.90625.28125.179687.566406.339843.855469.519531 2.109375 1.3125 4.3125 2.507812 6.585937 3.570312.285157.132813.574219.285157.859375.410157 2.507813 1.125 5.085938 2.105468 7.753906 2.894531.25.070312.503907.125.746094.1875 2.308594.65625 4.660156 1.160156 7.070313 1.554687.636719.109375 1.273437.207032 1.921875.296875 2.675781.347657 5.382812.59375 8.148437.59375s5.46875-.246093 8.144531-.59375c.648438-.089843 1.285157-.191406 1.921876-.296875 2.410156-.386718 4.761718-.898437 7.070312-1.554687.253906-.070313.503906-.113281.746094-.1875 2.667968-.789063 5.246094-1.769531 7.753906-2.894531.296875-.132813.574219-.277344.859375-.410157 2.273437-1.0625 4.464844-2.257812 6.585937-3.570312.277344-.179688.578126-.339844.855469-.519531 2.324219-1.5 4.542969-3.125 6.644531-4.90625.128907-.105469.246094-.222657.371094-.332032 1.929688-1.667968 3.746094-3.457031 5.46875-5.34375.296875-.320312.59375-.636718.882813-.96875 3.664062-4.1875 6.753906-8.867187 9.214843-13.914062.074219-.144532.171876-.277344.246094-.421875h151.832032l-12.546876 21.035156c-4.332031 7.257813-6.71875 15.460937-7.203124 23.878906h-.207032v233.546875zm44.914062-197.621094h-26.949219v-17.964843h26.949219c4.949219 0 8.984375 4.023437 8.984375 8.984375-.003906 4.957031-4.035156 8.980468-8.984375 8.980468zm0 0" />
   <path d="m245.164062 92.46875 26.949219-26.949219 12.699219 12.703125-26.949219 26.949219zm0 0" />
</svg>